<svg xmlns="http://www.w3.org/2000/svg" viewBox="0 0 500 500"><g id="freepik--Floor--inject-5"><path id="freepik--floor--inject-5" d="M94.4,281.74c-85.93,46.66-85.92,122.32,0,169s225.26,46.66,311.19,0,85.92-122.32,0-169S180.34,235.07,94.4,281.74Z" style="fill:#fafafa"></path></g><g id="freepik--Plants--inject-5"><g id="freepik--plants--inject-5"><path d="M60.36,394.91a.44.44,0,0,1-.21-.29c-3.39-17-19.28-27.82-26.06-32.46-1.1-.74-2-1.34-2.53-1.78a8.46,8.46,0,0,1-3.47-7.55,7.27,7.27,0,0,1,4.52-5.69c6.27-2.8,17.33,4.18,25.15,15.89,11,16.41,8,29.68,8,29.81a.43.43,0,0,1-.26.31l-4.79,1.78-.17,0A.41.41,0,0,1,60.36,394.91ZM57.05,363.5c-7.6-11.37-18.18-18.21-24.09-15.58a6.36,6.36,0,0,0-4,5,7.57,7.57,0,0,0,3.15,6.77c.54.42,1.4,1,2.48,1.75,6.81,4.65,22.65,15.48,26.31,32.5l4.1-1.53C65.31,390.65,67,378.44,57.05,363.5Z" style="fill:#BA68C8"></path><path d="M63.27,393.94h.06a.42.42,0,0,0,.38-.46C62,373.43,46.07,355.62,36.33,352.64a.43.43,0,0,0-.53.28.43.43,0,0,0,.28.54c9.63,3,25.12,21.08,26.78,40.09A.43.43,0,0,0,63.27,393.94Z" style="fill:#BA68C8"></path><path d="M65.34,393.17a.38.38,0,0,0,.18,0l3.23-1.36a.45.45,0,0,0,.26-.31c0-.2,3.9-19.94-3.16-45.23-3.6-12.88-12.6-24.87-21.4-28.5-4.23-1.74-8.2-1.6-11.78.43a6.41,6.41,0,0,0-3.52,4.47c-.87,5,5,11.74,11.13,18.85,4.31,5,8.77,10.12,11.06,14.84a.42.42,0,0,0,.57.19.43.43,0,0,0,.2-.57c-2.34-4.82-6.84-10-11.19-15-6-7-11.73-13.53-10.93-18.15a5.54,5.54,0,0,1,3.1-3.86c3.34-1.9,7-2,11-.39,8.58,3.54,17.37,15.29,20.91,27.94,6.6,23.66,3.58,42.39,3.18,44.61l-3,1.27a.43.43,0,0,0-.23.56A.44.44,0,0,0,65.34,393.17Z" style="fill:#BA68C8"></path><path d="M64.88,380.91h0a.43.43,0,0,0,.41-.44c-.76-31.22-20.64-54.17-26.2-57.88a.43.43,0,1,0-.48.71c5.48,3.66,25.08,26.31,25.83,57.19A.42.42,0,0,0,64.88,380.91Z" style="fill:#BA68C8"></path></g><g id="freepik--plants--inject-5"><path d="M440.83,395.88a.47.47,0,0,1-.17,0l-4.79-1.78a.42.42,0,0,1-.27-.31c0-.13-3-13.4,8-29.81,7.83-11.71,18.88-18.69,25.15-15.89a7.25,7.25,0,0,1,4.52,5.69,8.4,8.4,0,0,1-3.47,7.55c-.56.45-1.43,1-2.53,1.79-6.78,4.63-22.67,15.48-26,32.45a.46.46,0,0,1-.22.29A.37.37,0,0,1,440.83,395.88Zm-4.44-2.53,4.1,1.53c3.66-17,19.51-27.85,26.31-32.5,1.08-.74,1.94-1.32,2.48-1.75a7.61,7.61,0,0,0,3.16-6.77,6.39,6.39,0,0,0-4-5c-5.9-2.63-16.49,4.21-24.09,15.59C434.34,379.36,436.07,391.58,436.39,393.35Z" style="fill:#BA68C8"></path><path d="M438.1,394.87h-.05a.42.42,0,0,1-.39-.46c1.75-20,17.64-37.86,27.38-40.84a.42.42,0,0,1,.53.28.43.43,0,0,1-.28.54c-9.63,2.95-25.12,21.08-26.78,40.1A.44.44,0,0,1,438.1,394.87Z" style="fill:#BA68C8"></path><path d="M436,394.09a.29.29,0,0,1-.18,0l-3.23-1.36a.45.45,0,0,1-.26-.31c0-.2-3.9-19.94,3.16-45.23,3.6-12.88,12.6-24.87,21.4-28.5,4.24-1.74,8.2-1.6,11.78.44a6.41,6.41,0,0,1,3.53,4.46c.86,5-5,11.74-11.13,18.85-4.32,5-8.78,10.12-11.07,14.84a.43.43,0,0,1-.77-.37c2.34-4.82,6.84-10,11.19-15,6-7,11.73-13.52,10.93-18.14a5.55,5.55,0,0,0-3.1-3.87c-3.34-1.9-7-2-11-.39-8.58,3.54-17.37,15.29-20.9,27.94-6.61,23.67-3.59,42.39-3.19,44.61l3,1.27a.43.43,0,0,1,.23.56A.42.42,0,0,1,436,394.09Z" style="fill:#BA68C8"></path><path d="M436.5,381.83h0a.42.42,0,0,1-.42-.44c.76-31.21,20.65-54.17,26.2-57.88a.43.43,0,0,1,.6.12.42.42,0,0,1-.12.59c-5.48,3.66-25.08,26.32-25.83,57.2A.42.42,0,0,1,436.5,381.83Z" style="fill:#BA68C8"></path></g></g><g id="freepik--Shadows--inject-5"><ellipse id="freepik--Shadow--inject-5" cx="111.11" cy="416.61" rx="69.01" ry="39.84" style="fill:#e0e0e0"></ellipse><ellipse id="freepik--shadow--inject-5" cx="387.26" cy="417.65" rx="69.01" ry="39.84" style="fill:#e0e0e0"></ellipse><ellipse id="freepik--shadow--inject-5" cx="250.46" cy="381.96" rx="69.01" ry="39.84" style="fill:#e0e0e0"></ellipse></g><g id="freepik--speech-bubbles-3--inject-5"><path id="freepik--speech-bubble--inject-5" d="M329.58,43c17.75,0,32.18,11.7,32.18,26.09,0,7.05-3.56,13.85-9.8,18.75,1.76,1.64,4.75,2.21,8,1.51l1.54-.34-.88,1.3C359,92.7,355.81,94.43,352,95a15,15,0,0,1-10-1.78,38.59,38.59,0,0,1-12.4,2c-17.74,0-32.17-11.71-32.17-26.09S311.84,43,329.58,43Zm27.73,47.9a8.62,8.62,0,0,1-6.77-2.74l-.43-.51.54-.39c6.26-4.69,9.85-11.31,9.85-18.17,0-13.69-13.87-24.83-30.92-24.83s-30.91,11.14-30.91,24.83S312.54,94,329.58,94a37.1,37.1,0,0,0,12.28-2l.3-.1.26.17a13.72,13.72,0,0,0,9.41,1.75,12.6,12.6,0,0,0,6.66-2.86A11.81,11.81,0,0,1,357.31,90.94Z" style="fill:#ebebeb"></path><path id="freepik--speech-bubble--inject-5" d="M212.46,69.84c0,15.91-16,28.85-35.58,28.85a42.81,42.81,0,0,1-13.71-2.22,16.54,16.54,0,0,1-11.08,2c-4.21-.61-7.76-2.52-9.52-5.12l-1-1.44,1.7.37c3.58.78,6.89.14,8.84-1.67-6.9-5.42-10.84-12.93-10.84-20.73,0-15.91,16-28.85,35.58-28.85S212.46,53.93,212.46,69.84ZM144.92,93.9a14,14,0,0,0,7.37,3.16,15.18,15.18,0,0,0,10.4-1.94l.29-.19.33.11a41.07,41.07,0,0,0,13.57,2.26c18.85,0,34.19-12.32,34.19-27.46s-15.34-27.46-34.19-27.46S142.69,54.7,142.69,69.84c0,7.58,4,14.91,10.9,20.09l.59.44-.47.56a9.57,9.57,0,0,1-7.49,3C145.79,94,145.36,93.94,144.92,93.9Z" style="fill:#ebebeb"></path></g><g id="freepik--speech-bubble-2--inject-5"><path id="freepik--speech-bubble--inject-5" d="M490.4,90.53c0,15.74-15.79,28.54-35.2,28.54a42.18,42.18,0,0,1-13.57-2.2,16.4,16.4,0,0,1-11,1.95c-4.16-.61-7.67-2.5-9.41-5.07l-1-1.42,1.68.36c3.55.77,6.82.14,8.75-1.65C423.89,105.68,420,98.24,420,90.53,420,74.79,435.79,62,455.2,62S490.4,74.79,490.4,90.53Zm-66.83,23.8a13.94,13.94,0,0,0,7.29,3.13,15,15,0,0,0,10.3-1.92l.28-.19.33.11a40.49,40.49,0,0,0,13.43,2.24c18.65,0,33.82-12.19,33.82-27.17S473.85,63.35,455.2,63.35s-33.83,12.19-33.83,27.18c0,7.5,3.93,14.75,10.78,19.87l.59.44-.47.56a9.46,9.46,0,0,1-7.41,3Q424.23,114.39,423.57,114.33Z" style="fill:#BA68C8"></path></g><g id="freepik--speech-bubble-1--inject-5"><path id="freepik--speech-bubble--inject-5" d="M45.24,62C63,62,77.42,73.68,77.42,88.07c0,7.05-3.57,13.85-9.81,18.75,1.77,1.64,4.76,2.21,8,1.51l1.53-.34-.87,1.3c-1.59,2.35-4.8,4.08-8.6,4.64a15,15,0,0,1-10-1.78,38.68,38.68,0,0,1-12.4,2c-17.74,0-32.17-11.7-32.17-26.09S27.5,62,45.24,62ZM73,109.88a8.62,8.62,0,0,1-6.77-2.74l-.43-.5.53-.4c6.27-4.69,9.86-11.31,9.86-18.17,0-13.69-13.87-24.83-30.92-24.83S14.33,74.38,14.33,88.07,28.2,112.9,45.24,112.9a37.1,37.1,0,0,0,12.28-2l.3-.1.26.17a13.65,13.65,0,0,0,9.4,1.75,12.71,12.71,0,0,0,6.67-2.85C73.75,109.86,73.35,109.88,73,109.88Z" style="fill:#BA68C8"></path></g><g id="freepik--character-2--inject-5"><g id="freepik--Character--inject-5"><g id="freepik--Bottom--inject-5"><g id="freepik--bottom--inject-5"><polygon points="264.65 359.58 268.41 357.65 264.65 356.66 264.65 359.58" style="fill:#BA68C8"></polygon><polygon points="264.65 359.58 268.41 357.65 264.65 356.66 264.65 359.58" style="opacity:0.7000000000000001"></polygon><path d="M302.39,366s-45.09-19.62-45.6-16.58a4.63,4.63,0,0,0,0,1.83c0-.06-.09-.11-.12-.16l.92,5.65a13.27,13.27,0,0,0,7,2.82v-2.92a22.52,22.52,0,0,1,4,2c2.9,1.87,4.8,5.18,7.91,9,2.27,2.8,6.24,4.05,12.12,4.8,6.32.8,11.86-.5,13.4-2.23C303.29,368.9,302.63,366.41,302.39,366Z" style="fill:#BA68C8"></path><path d="M302.39,366s-45.09-19.62-45.6-16.58a4.63,4.63,0,0,0,0,1.83c0-.06-.09-.11-.12-.16l.92,5.65a13.27,13.27,0,0,0,7,2.82v-2.92a22.52,22.52,0,0,1,4,2c2.9,1.87,4.8,5.18,7.91,9,2.27,2.8,6.24,4.05,12.12,4.8,6.32.8,11.86-.5,13.4-2.23C303.29,368.9,302.63,366.41,302.39,366Z" style="opacity:0.5"></path><path d="M301.14,365c-.44-.45-2.06-2.19-4.26-4.09a82.66,82.66,0,0,0-6.54-5.43,25.44,25.44,0,0,1-3.26-2.62c-.79-.83-1.55-1.69-2.26-2.59a49,49,0,0,1-5.55-9.14c-.73-1.53-2.06-4.89-1.79-11.18.39-9.52,1.11-13,1-19.15l-21.31,3.27c.68,3.42,1.47,11.05,1.86,14.94.59,5.92,1.46,6.47-.74,12.42-.65,1.75-1.64,3.44-1.69,5.3-.1,3,2.31,5.62,5,7.06,2.22,1.19,4.75,1.68,6.9,3a22.43,22.43,0,0,1,5.66,5.42c1.54,1.92,2.78,4.19,4.92,5.52a19.46,19.46,0,0,0,7.33,2.42,38.66,38.66,0,0,0,9.81.34C300.89,370,304.33,368.24,301.14,365Z" style="fill:#b16668"></path><path d="M298.52,361.72c-2-1.6-4.73-3.9-8.07-6.47a8.39,8.39,0,0,0-6.94.74c-6.59,3.62-7.65,8.62-7.65,8.62a9.63,9.63,0,0,0,5.51,4.7c7.74,3.25,21.47,2,21.55-1.6C303,365.44,300.89,363.66,298.52,361.72Zm-39.78-21.59s-.43,1.17-1.56,3.48a6.46,6.46,0,0,0,.17,6.86,10.2,10.2,0,0,0,6.81,4.5C266.19,348.18,261.44,341.54,258.74,340.13Z" style="fill:#BA68C8"></path><g style="opacity:0.2"><path d="M298.52,361.72c-2-1.6-4.73-3.9-8.07-6.47a8.39,8.39,0,0,0-6.94.74c-6.59,3.62-7.65,8.62-7.65,8.62a9.63,9.63,0,0,0,5.51,4.7c7.74,3.25,21.47,2,21.55-1.6C303,365.44,300.89,363.66,298.52,361.72Zm-39.78-21.59s-.43,1.17-1.56,3.48a6.46,6.46,0,0,0,.17,6.86,10.2,10.2,0,0,0,6.81,4.5C266.19,348.18,261.44,341.54,258.74,340.13Z"></path></g><path d="M224.11,354.8c1.33,2-.08,9.72.38,15.18.41,5,1.66,12.67.62,18.53s-5.83,12.45-12.83,7.21c-4.34-3.25-6.17-7.26-7-14.4-.55-4.95,1.22-11.88,2.74-18,1.78-7.18,2.42-11,2.42-11Z" style="fill:#BA68C8"></path><path d="M224.11,354.8c1.33,2-.08,9.72.38,15.18.41,5,1.66,12.67.62,18.53s-5.83,12.45-12.83,7.21c-4.34-3.25-6.17-7.26-7-14.4-.55-4.95,1.22-11.88,2.74-18,1.78-7.18,2.42-11,2.42-11Z" style="opacity:0.5"></path><path d="M208,318.59c.26,10.2.85,19,1.16,26.46a118.42,118.42,0,0,1-.12,13.07,116.71,116.71,0,0,1-2,12.11c-.84,4.32-1.5,7,.13,11.8a5.56,5.56,0,0,0,.52,1.07c2.18,3.9,7.53,6.74,9.21,6.21a2.9,2.9,0,0,0,3,.94,5.62,5.62,0,0,0,.55-.15,4,4,0,0,0,.56-.25,5.76,5.76,0,0,0,2.69-3.72c.09-.33.17-.68.24-1.06,1-6,0-9.83-.15-12.16-.21-2.69,0-6.13-.05-10.48-.13-8.4,2.72-17.66,3.93-24.25,1-5.35,2.19-13.46,3.48-19.59Z" style="fill:#b16668"></path><path d="M206.24,375.84c4.09-1.95,16.11-2.57,18.2,3.22.22,5.51.37,9.25-3,14.15-4.43,6.51-10.67-.06-13.11-4.28S205.76,378.83,206.24,375.84Z" style="fill:#BA68C8"></path><path d="M206.24,375.84c4.09-1.95,16.11-2.57,18.2,3.22.22,5.51.37,9.25-3,14.15-4.43,6.51-10.67-.06-13.11-4.28S205.76,378.83,206.24,375.84Z" style="opacity:0.2"></path><path d="M223.47,159.22c-5.64,13.13-12.5,24-13.26,47.56-1,31.36.48,52.85.25,56.63s-3.11,8.61-4.12,27.31c-1.13,20.84,1.82,52.19,1.82,52.19s2.51,3,9.62,3.8c6.55.77,10-2.7,10-2.7s11.3-49.58,13.36-62c1.88-11.34,8.64-53.3,8.64-53.3l2.83,32.9s-2.39,10.55-.82,26.93,6.74,43.5,6.74,43.5a17.81,17.81,0,0,0,11.26,3.22c6.38-.25,9-2.82,9-2.82s3.87-62.24,4.37-80.75,5.19-54.06-5.63-92.82Z" style="fill:#37474f"></path><path d="M275.51,185.7c-1,7.53-12.54,15.34-17,16.29l-5.66,28.23-.2,31.38-2.83-32.9,5.13-29.63S269.27,195.47,275.51,185.7Z" style="fill:#263238"></path><path d="M273.92,257.08c.19-4.2.05-8.48,0-12.73s-.23-8.52-.35-12.78L272.63,206c1.09,8.48,1.88,17,2.44,25.51s1,17,.83,25.66c-.39,18.26-.92,39.95-1.73,50.19C273.83,298.14,273.72,261.29,273.92,257.08Z" style="fill:#263238"></path><path d="M227.27,281.61c1.39-9.65,4.44-31.35,5.83-41s2.69-19.4,4.17-29.09c-.72,9.78-1.56,19.54-2.65,29.29s-3.87,31.51-5.42,41.23c-2,12.35-3.69,29.38-7.95,49.07C222.29,320.39,225.51,293.75,227.27,281.61Z" style="fill:#263238"></path></g></g><g id="freepik--Top--inject-5"><polygon id="freepik--Hair--inject-5" points="224.23 61.79 224.23 116.11 266.87 116.11 266.87 65.42 224.23 61.79" style="fill:#263238"></polygon><path d="M262.7,99.35c6.11.32,11.54.7,16.84,3.75,5.76,3.32,39.34,30.6,39.34,30.6s-1.81,5.24-13.44,3.12c-6.08-1.11-27.16-6-27.16-6Z" style="fill:#e0e0e0"></path><g id="freepik--Chest--inject-5"><path d="M216.12,176c3.75-11.57,4.77-17.41,4.14-22.81-1-8.3-3.19-17.29-4-23-1.65-12,.22-20.07,6.69-28.84a86.84,86.84,0,0,1,12.35-2.26l18.55-.1a68.14,68.14,0,0,1,8.83.36c3.71,3.81,10.2,8.67,16,17.23,6,8.85,9.48,19.3.27,26.94,0,0-1,8.21-1,11.81.38,5.17,2.43,9.65,4,20C267.89,188.41,232,189.57,216.12,176Z" style="fill:#f5f5f5"></path></g><path d="M275,82.65a9.24,9.24,0,0,0-1.06-2,22.33,22.33,0,0,1-1.7-5,2.31,2.31,0,0,0-.56-1.1,1.54,1.54,0,0,0-2.06.27,3.6,3.6,0,0,0-.75,2.13c-.31,3.24.69,6.53.09,9.73a23.92,23.92,0,0,0-.51,4.12,7,7,0,0,0,.3,2.09c.07.21.88,1.62.85,1.68l2.76-5.51q1-2,2-4a4.27,4.27,0,0,0,.68-1.71A2.33,2.33,0,0,0,275,82.65Z" style="fill:#9a4a4d"></path><path d="M283.17,76.92c-1-2.12-1.25-4.92-1.72-6.64a19,19,0,0,0-2.16-4.8c-1-1.65-1.82-3.87-2.48-4s-1.62.7-1.38,2.08c0,0-1-.91-1.8-1.87s-1.5-2.23-2.52-2.33-1.28,1.54-.79,2.59.86,1.64.86,1.64-.91.58.21,2.43a9.64,9.64,0,0,0,1.66,2,9.55,9.55,0,0,0,1.6,3.35A18.76,18.76,0,0,0,276.48,75c-.21,1.08-1.19,2.07-.93,3.87s-.54,2.57-2.31,5c-1.2,1.65-2.25,1.8-3.29,4s-1.29,6.27.76,8.64,3.65,4.07,5.62,6.59c1.5,1.9,3.07,4.47,9.44,13.58,5,7.08,5.4,8,7.67,10.49,3.18,3.49,5.63,6.87,12.76,8.62s13.95,0,13.25-4.95a22.55,22.55,0,0,0-7.51-14.38,70.7,70.7,0,0,0-9.27-7c-3.74-2.59-6.75-5.4-11.42-9.19s-8-7.55-8.2-9c-.34-2.49.28-6.26.56-8.19C284.06,80.11,284.51,80.14,283.17,76.92Z" style="fill:#b16668"></path><path d="M269.56,94.56A13.46,13.46,0,0,0,272,97.87c.9,1.06,1.8,2.13,2.67,3.22s1.74,2.17,2.58,3.28,1.83,2.75,2.64,3.88c-.92-1-1.95-2.65-2.84-3.72s-1.76-2.15-2.65-3.22l-2.64-3.24-1.32-1.62A4.9,4.9,0,0,1,269.56,94.56Z" style="fill:#9a4a4d"></path><path d="M275.43,63.55a11.63,11.63,0,0,0,.76,1.73c.3.55.62,1.09,1,1.6l.05.08v.13a5.81,5.81,0,0,0,.07,1,7,7,0,0,0,.21,1,6.23,6.23,0,0,0,.85,1.83l.1.14-.05.13a5.86,5.86,0,0,0-.17.75,7.25,7.25,0,0,0-.09.8,5.47,5.47,0,0,0,0,.81,7.9,7.9,0,0,0,.09.82,4.75,4.75,0,0,1-.48-1.62,4.1,4.1,0,0,1,0-.86,5.4,5.4,0,0,1,.1-.87l0,.27a5.82,5.82,0,0,1-1-2,5.9,5.9,0,0,1-.22-1.11,4.81,4.81,0,0,1,0-1.14l.05.2a9.79,9.79,0,0,1-.8-1.78A6.22,6.22,0,0,1,275.43,63.55Z" style="fill:#9a4a4d"></path><path d="M271.18,63.58a4.93,4.93,0,0,0,.78.74,6.76,6.76,0,0,0,.89.58l0,0,.05.1A8.14,8.14,0,0,0,274.08,67a5.84,5.84,0,0,0,1.63,1.47l.19.12,0,.23a6.56,6.56,0,0,0,0,1.24,11.13,11.13,0,0,0,.23,1.26,11.82,11.82,0,0,0,.39,1.24c.14.42.34.81.51,1.23a9.46,9.46,0,0,1-.79-1.09,7.72,7.72,0,0,1-.61-1.22,7.48,7.48,0,0,1-.37-1.33,5.9,5.9,0,0,1-.1-1.41l.18.34a4.61,4.61,0,0,1-1-.74,5.52,5.52,0,0,1-.81-.93,6.67,6.67,0,0,1-.62-1.06,7.23,7.23,0,0,1-.41-1.16l.1.13a4.68,4.68,0,0,1-.83-.77A3.8,3.8,0,0,1,271.18,63.58Z" style="fill:#9a4a4d"></path><path d="M277.34,77.37a5.35,5.35,0,0,1-.29,2.41,7.82,7.82,0,0,1-1.16,2.12c.12-.39.27-.76.41-1.13s.28-.74.41-1.11A20.82,20.82,0,0,0,277.34,77.37Z" style="fill:#9a4a4d"></path><path d="M271.22,85.92a10,10,0,0,0,.07,4.29,8,8,0,0,0,.81,2A16.78,16.78,0,0,0,273.35,94a5.88,5.88,0,0,1-1.72-1.5,5.6,5.6,0,0,1-1-2.09A5.84,5.84,0,0,1,271.22,85.92Z" style="fill:#9a4a4d"></path><g id="freepik--Mobile--inject-5"><path d="M261.79,73.17l4.91-12.6a.67.67,0,0,1,.28-.35l1.19-.7c.29-.17.72,0,1.11.4l18,20.48a2.37,2.37,0,0,1,.57,2.15L283,95.16a.7.7,0,0,1-.27.35l-1.19.7c-.3.17-.73,0-1.12-.4l-18-20.48A2.38,2.38,0,0,1,261.79,73.17Z" style="fill:#455a64"></path><path d="M286.65,83l-.51-1.39,1.45-.85a2.22,2.22,0,0,1,.3,1.79L283,95.16a.7.7,0,0,1-.27.35l-1.19.69Z" style="fill:#263238"></path><path d="M281.78,95.86l4.91-12.6a2.38,2.38,0,0,0-.56-2.16l-18-20.47c-.54-.62-1.16-.64-1.39-.06l-4.91,12.6a2.38,2.38,0,0,0,.57,2.16l18,20.48C280.94,96.42,281.56,96.44,281.78,95.86Z" style="fill:#37474f"></path><path d="M286.05,83a1.74,1.74,0,0,0-.44-1.44l-18-20.48a.88.88,0,0,0-.24-.2l-4.89,12.55a1.74,1.74,0,0,0,.44,1.45l18,20.47a.88.88,0,0,0,.24.2Z" style="fill:#263238"></path><path d="M263.28,74.83a1.76,1.76,0,0,1-.44-1.45l4.77-12.24,18,20.42a1.74,1.74,0,0,1,.44,1.44l-4.77,12.25Z" style="fill:#455a64"></path><path d="M272.59,82.41c2.23,2.49,4.77,2.56,5.68.15s-.15-6.39-2.38-8.89-4.77-2.56-5.68-.15S270.36,79.91,272.59,82.41Z" style="fill:#BA68C8"></path><path d="M274.41,82c0-.22-.07-1.31-.06-1.49s0-.31.19-.25a5.41,5.41,0,0,0,.7.12c.12,0,.16-.06.15-.28a7.81,7.81,0,0,0-.22-1.92,10.5,10.5,0,0,0-.62-1.85c-.1-.24-.2-.24-.29-.25s-.22,0-.32,0l-.09,0-.19-.08a.53.53,0,0,1-.23-.28l-.83-1.57c-.22-.42-.13-.49-.09-.58s.05-.19.09-.29a.29.29,0,0,1,.31-.2,1.71,1.71,0,0,1,1.32.74,5.19,5.19,0,0,1,.42.59,9.29,9.29,0,0,1,.74,1.56,14.71,14.71,0,0,1,1.08,4.77c0,2.09-.21,1.89-.33,2.13a.8.8,0,0,1-1,.27,2.13,2.13,0,0,1-.67-.63A1.49,1.49,0,0,1,274.41,82Z" style="fill:#fff;fill-rule:evenodd"></path></g><g id="freepik--Head--inject-5"><path d="M234.19,88.22c0-3.67-5.12-10-8-16.44S223,55.09,228.94,51.37c.7-10.13,21.06-15.5,34.1-8.06s12.12,22,3.84,25.93S234.19,88.22,234.19,88.22Z" style="fill:#263238"></path><g id="freepik--head--inject-5"><g id="freepik--head--inject-5"><path d="M231.59,83.15a6.66,6.66,0,0,1-6.17-2.33c-3.38-3.63-3-7.36-1.47-9.87,1.25-2.06,4.38-3.41,6.61-2,2.38,1.45,2.46,2.65,3.38,4.31s3.18.33,2.33-6.38c4.56-2.21,2-8.49,4.47-11.66,3.11-4,9-2.1,12.25-.63a2.6,2.6,0,0,0,2.83-.42A6.83,6.83,0,0,1,263.53,53c2.81,1.47,4.18,3.52,3.77,10.33a17.68,17.68,0,0,0,.3,4.65,46.54,46.54,0,0,1,.83,4.91c.41,6.42-1.49,14-4.81,17.2A13.25,13.25,0,0,1,254,93.48l.07,5.89s10.84,9.19-1.44,9.19c-14.06,0-18.33-9.21-18.33-9.21l-.07-18.14S233.94,82.68,231.59,83.15Z" style="fill:#b16668"></path><path d="M254,93.48c-7.41-.16-15.39-4.11-17.6-10.23.64,6.38,5.12,9.78,9.45,11.37A25.06,25.06,0,0,0,254,96Z" style="fill:#9a4a4d"></path></g><polygon points="253.38 65.09 254.96 77.87 261.71 74.72 253.38 65.09" style="fill:#9a4a4d"></polygon><path d="M250.07,68.06a1.9,1.9,0,1,1-1.95-1.92A1.93,1.93,0,0,1,250.07,68.06Z" style="fill:#263238"></path><path d="M264.05,67.51a1.9,1.9,0,1,1-1.77-2.09A2,2,0,0,1,264.05,67.51Z" style="fill:#263238"></path><path d="M244.6,62.34,248,59.22a2.42,2.42,0,0,1-.16,3.36A2.25,2.25,0,0,1,244.6,62.34Z" style="fill:#263238"></path><path d="M259.7,59.22l4.21,2a2.24,2.24,0,0,1-3,1.16A2.44,2.44,0,0,1,259.7,59.22Z" style="fill:#263238"></path><path d="M250.92,83.19a1.69,1.69,0,0,0,2.43.22,2.09,2.09,0,0,0,.35-2.54,2,2,0,0,0-.59-.66,1.79,1.79,0,0,1,.93-.49,3.11,3.11,0,0,0-2.26.18,2.26,2.26,0,0,0-1,1A2.51,2.51,0,0,0,250.92,83.19Z" style="fill:#9a4a4d"></path><path d="M253.65,83a1.35,1.35,0,0,1-.3.37,1.69,1.69,0,0,1-2.43-.22,2.46,2.46,0,0,1-.3-1.47A4.37,4.37,0,0,1,253.65,83Z" style="fill:#ffa8a7"></path></g></g><g id="freepik--Briefcase--inject-5"><path d="M162.15,268.79l5.5-53a4.39,4.39,0,0,1,2-2.82l1.55-.92a1.61,1.61,0,0,1,1.34-.26h0L233.94,233l-10,57.87-61.36-21.15h0C162.27,269.58,162.1,269.27,162.15,268.79Z" style="fill:#37474f"></path><path d="M223.93,290.84q-7.74-2.44-15.44-5l-15.37-5.2-15.31-5.38q-7.63-2.72-15.24-5.57,7.74,2.43,15.44,5l15.37,5.2,15.31,5.38Q216.34,288,223.93,290.84Z" style="fill:#263238"></path><path d="M233,285.9l-7.82,4.66c-1,.6-1.76.32-1.67-.63l5.5-53a4.39,4.39,0,0,1,2-2.82l1.55-.92c1-.6,1.86-.34,1.88.6l.33,49.3A3.63,3.63,0,0,1,233,285.9Z" style="fill:#263238"></path><path d="M206.75,280.86a.79.79,0,0,0,.71-.63l2.85-25.18c0-.32-.25-.55-.64-.52a.82.82,0,0,0-.75.63l-2.84,25.19c0,.32.25.55.63.52Z" style="fill:#BA68C8"></path><path d="M178.86,271.53a.81.81,0,0,0,.71-.63l2.84-25.19c0-.31-.25-.54-.63-.51a.8.8,0,0,0-.75.63L178.18,271c0,.31.25.54.64.51Z" style="fill:#BA68C8"></path><path d="M221.12,262.65c2.35.81,5.39-.91,5.62-3.18L229,236.94a4.39,4.39,0,0,1,2-2.81l1.54-.92a1.7,1.7,0,0,1,1.24-.3L172.55,211.8v0a1.53,1.53,0,0,0-1.34.25l-1.56.92a4.42,4.42,0,0,0-2,2.82l-2.22,22.32a6.66,6.66,0,0,0,4.84,7Z" style="fill:#455a64"></path><polygon points="199.04 253.17 191.75 250.66 191.33 254.05 198.63 256.56 199.04 253.17" style="fill:#BA68C8"></polygon></g><path d="M194.59,219.36c1.21-4.73,3-12.27,4.49-12.59l-1.2-1.87s-1.54,0-3,4.23c-1.19,3.45-2.78,9.38-2.78,9.38Z" style="fill:#37474f"></path><path d="M210.38,217.29c2-.59,3.65-3.24,3.86-4.12s-.47-3.85-1.34-4.62-4.69-4-5.77-3.52-1.62,6.5-.39,8.63A12.25,12.25,0,0,0,210.38,217.29Z" style="fill:#9a4a4d"></path><path d="M195.92,211.18a61.76,61.76,0,0,1-2-8.36,54.77,54.77,0,0,1-.4-7.58c-.15-6.26-1.33-24.82-.66-34.55l17.52,7.47s-4.3,21.16-4.44,24.56c-.08,2,2.34,4.18,3.44,5.83a22.32,22.32,0,0,1,2.29,5.11,33,33,0,0,0,2.5,5.52,2,2,0,0,1,.28.69,1.24,1.24,0,0,1-1.16,1.25,2.74,2.74,0,0,1-1.76-.58,12.36,12.36,0,0,1-3.05-3.39c-.13-.18-.3-.38-.52-.36s-.34.21-.41.4a6.21,6.21,0,0,0-.15,1.83,10.19,10.19,0,0,0,1.69,4.3c.77,1.29,2.13,2.62,3.86,2.32a14.09,14.09,0,0,1-1,1.07,7.8,7.8,0,0,1-1.28.94,3.76,3.76,0,0,1-2.84.16c-1.26-.31-2.29-1.38-3.59-1.46a7.57,7.57,0,0,0-1.06,0,3.18,3.18,0,0,1-2.2-.64c-.52-.44-.84-1.12-1.44-1.43a4.67,4.67,0,0,0-1-.3A4,4,0,0,1,195.92,211.18Z" style="fill:#b16668"></path><path d="M211,208.65c1.53,1.61,2.41,5,2.17,7.86s-1.23,8.83-1.23,8.83l-2.42-.83s.32-2.14,1-6.63c.58-4.12-.32-6.27-1-7.2a4.38,4.38,0,0,0-2.12-1.66s-.49-2.06.38-2.24C208.72,206.81,209.45,207,211,208.65Z" style="fill:#263238"></path><path d="M212.73,160.43s11.65-22.81,14-27.83,4.39-22.45-3.79-31.25c-9.89,2.12-12.18,4.44-16.89,15.51S196,145.15,193.89,151c-1.57,4.4-1.58,8.32-1.49,15.47.08,6.25.39,11.15.39,11.15s1.82,1.73,8.13,1.86c5.82.13,7.58-2,7.58-2Z" style="fill:#e0e0e0"></path></g></g></g><g id="freepik--character-3--inject-5"><g id="freepik--character--inject-5"><g id="freepik--bottom--inject-5"><path d="M433.74,361.37l-27.15-.22c4.68,18,7.6,28.08,9.84,39.29-.23,1.4,3.08,24.26,4,28.9s11.77,5,12.62-3c.57-5.28-.45-24.32-.41-26.86C432.82,390.44,433.57,377.58,433.74,361.37Z" style="fill:#ffa8a7"></path><path d="M353.94,349c1,13.43,2.53,27.11,3,35.86.29,5.33-.06,7.87-2.16,10.18-4.38,4.84-10.63,8.84-16.18,13.11.89,2.07,7.72,1.77,11,.07A86.85,86.85,0,0,0,362,400.05c4.56-3.48,12-4.05,11.92-9.12,0-.63.85-3.16.81-3.26,0-2,4-22.29,6.95-38.44Z" style="fill:#ffa8a7"></path><path d="M329.23,414.05c-.29,0-.66,3.09.93,4.36,1.85,1.46,7.22,3.82,14.23,2.79s10.77-3.21,13.53-5.54,6.64-5.63,9.81-6.37c2.94-.69,6.8-2.27,7.72-3.17s.72-4.82.72-4.82Z" style="fill:#263238"></path><path d="M374.85,386.6a.63.63,0,0,1,.57.64c.06,1.1-.6,4.23-.19,6.31.49,2.5,1.47,6.6.83,9.1-.5,2-5.81,3.73-8.86,4.93a39.59,39.59,0,0,0-9.84,6.29c-3.25,2.7-10.14,5.49-14.72,5.66-3.42.12-7.17-.09-10.3-1.63-1.28-.63-3-1.8-3-3.33A6.59,6.59,0,0,1,331,410.1a19.12,19.12,0,0,1,4.89-3.59,106,106,0,0,0,11.73-7.95c2.37-1.87,4.74-4.05,5.53-7,.21-.79.31-1.6.57-2.37a3,3,0,0,1,1.49-1.85,3.8,3.8,0,0,1,1.61-.24c3.14,0,6.41.34,9.07,2a3.49,3.49,0,0,1,1.37,1.35c.69,1.41-.27,3.36.74,4.57,1.58-1.8,1.35-4.37,3.52-5.76.64-.41,1.54-.61,2.55-1.16C374.61,387.88,374.73,387.16,374.85,386.6Z" style="fill:#37474f"></path><path d="M335.61,406.69c10.14.45,13.68,7.5,14.19,11.22a24.88,24.88,0,0,1-7.16,1.62c-7,.25-11.84-1.47-13.29-3.87C327.66,412.87,330.58,409.05,335.61,406.69Z" style="fill:#fafafa"></path><path d="M349.41,406.8a.51.51,0,0,0,.31-.11.46.46,0,0,0,.06-.67,12.1,12.1,0,0,0-9.23-3.28.48.48,0,0,0-.43.53.49.49,0,0,0,.56.41,11.26,11.26,0,0,1,8.35,3A.47.47,0,0,0,349.41,406.8Z" style="fill:#f0f0f0"></path><path d="M353.74,404a.51.51,0,0,0,.31-.11.47.47,0,0,0,.06-.68,12.14,12.14,0,0,0-9.23-3.28.5.5,0,0,0-.43.54.49.49,0,0,0,.56.41,11.26,11.26,0,0,1,8.35,2.95A.48.48,0,0,0,353.74,404Z" style="fill:#f0f0f0"></path><path d="M357.33,401.1a.51.51,0,0,0,.31-.11.47.47,0,0,0,.05-.68,12.14,12.14,0,0,0-9.23-3.28.48.48,0,1,0,.13,1,11.26,11.26,0,0,1,8.35,2.95A.49.49,0,0,0,357.33,401.1Z" style="fill:#f0f0f0"></path><path d="M361.22,398.21a.45.45,0,0,0,.31-.11.47.47,0,0,0,.07-.67c-2-2.32-6.41-3.77-10.08-3.31a.48.48,0,1,0,.13.95c3.3-.42,7.42.92,9.18,3A.47.47,0,0,0,361.22,398.21Z" style="fill:#f0f0f0"></path><path d="M417.09,433.1c.2,4.62.9,7.68,2.61,10.42s5,3.65,8.37,2.92,7.72-2.75,8.76-6.71,1.66-6.66,1-11Z" style="fill:#263238"></path><path d="M432.66,399.52c1.38.13.89,6.83,1.56,13,.72,6.65,2.79,9.44,3.45,14.89.74,6.24-.42,9-2.84,12.7s-10.78,7.24-14.76,1.78c-3.24-4.45-3.28-9.32-2.85-15.52a127.94,127.94,0,0,0-.13-15.74c-.17-4.66-1.87-9.73-.66-10.23a46.51,46.51,0,0,0,1.26,5.78c.08.19.21.42.42.44s.45-.36.46-.66a5.51,5.51,0,0,1,.29-2.47,3.6,3.6,0,0,1,2.51-1.41,29.55,29.55,0,0,1,7.57-.62,2.86,2.86,0,0,1,2.33.87,2.8,2.8,0,0,1,.35.94c.13.56.27,1.12.4,1.68,0,.1.2,1.16.5.65a14.76,14.76,0,0,0,.13-3.14C432.64,402.09,432.68,399.92,432.66,399.52Z" style="fill:#37474f"></path><path d="M438,431.06a14.72,14.72,0,0,1-2.78,9.4c-2.42,3.71-11.46,7.24-15.43,1.77-2-2.72-2.46-5.89-2.68-9.13C419.63,429,434.19,427.45,438,431.06Z" style="fill:#fafafa"></path><path d="M420.25,426.4a.53.53,0,0,0,.17,0c.06,0,6.51-2.36,12.71-.9a.52.52,0,0,0,.62-.34.47.47,0,0,0-.37-.58,25.72,25.72,0,0,0-13.38.95.46.46,0,0,0-.26.63A.51.51,0,0,0,420.25,426.4Z" style="fill:#f0f0f0"></path><path d="M432.92,420.82a.5.5,0,0,0,.44-.31.48.48,0,0,0-.31-.61c-6.16-2.08-13.11.72-13.37.84a.47.47,0,0,0-.23.64.54.54,0,0,0,.69.22c.06,0,6.83-2.74,12.56-.8A.53.53,0,0,0,432.92,420.82Z" style="fill:#f0f0f0"></path><path d="M432.79,416.45a.5.5,0,0,0,.43-.3.47.47,0,0,0-.29-.62c-6.78-2.41-13.38.67-13.62.8a.46.46,0,0,0-.19.65.55.55,0,0,0,.71.18c.05,0,6.43-3,12.73-.74A.46.46,0,0,0,432.79,416.45Z" style="fill:#f0f0f0"></path><path d="M432.53,412.14a.5.5,0,0,0,.44-.3.47.47,0,0,0-.29-.62c-6.34-2.35-13.44.8-13.71.94a.45.45,0,0,0-.2.65.52.52,0,0,0,.7.18c.06,0,6.94-3.06,12.83-.88A.47.47,0,0,0,432.53,412.14Z" style="fill:#ebebeb"></path><path d="M414.64,208.26c4.26,11,9.63,19.14,11.25,50.47s1.6,46.29,1.85,50.06,2.46,9.25,5.07,27.81.88,40.37.88,40.37A19.66,19.66,0,0,1,422.17,381a18.76,18.76,0,0,1-11.89-3.33s-8.39-32.9-10.53-45.41C397.81,321,388,278.36,388,278.36l-3.49,30.05s2.7,11,.36,27.41-6.13,32.51-6.13,32.51-3.4,1.14-10.59,1.28c-5.83.12-13-2.38-13-2.38s-5-48.39-5.56-66.9-3.46-68.82,5-92.56Z" style="fill:#455a64"></path><path d="M419.31,310.76s-3.87-3.65-11-2.57-10,5.25-10,5.25C405.9,309.83,419.31,310.76,419.31,310.76Zm-16.84,3.88c4.26.68,8.51.9,17.73-1.17C415.77,312.58,402.47,314.64,402.47,314.64Z" style="fill:#ffa8a7"></path><path d="M349.71,303.11c0,.65.05,1.33.08,2a94.17,94.17,0,0,1,18.31,0C365.46,303.81,355.91,302.25,349.71,303.11Z" style="fill:#ffa8a7"></path><path d="M349.91,307.76c0,.61,0,1.23.08,1.87,1.46-.12,10-.89,13.78-2C357.52,307.37,351.29,307.68,349.91,307.76Z" style="fill:#ffa8a7"></path><path d="M424.77,318.67c-2.16-8.6-3.59-26.11-4-40.45-.14-4.33-.27-8.81-.47-13.57-.77-18.67-2.94-39.53-13.17-52.7l-.78.56c6.88,8.85,10.06,21.3,11.63,34.21-9.76-.93-12.19-10.12-15.5-22.77-.45-1.73-.92-3.52-1.42-5.35l-.94.24c.51,1.83,1,3.61,1.43,5.34,3.3,12.63,5.92,22.63,16.54,23.5.66,5.69,1,11.44,1.25,17,.19,4.75.33,9.23.46,13.56.44,14.4,1.86,31.95,4.05,40.64.24,1,.51,2,.78,3.06,2.87,11.08,7.17,27.69,6.27,56.84a10.92,10.92,0,0,0,1-.64c.81-28.87-3.46-45.38-6.32-56.43C425.27,320.65,425,319.64,424.77,318.67Z" style="fill:#37474f"></path><path d="M388,278.36,380.78,243s-12.87-.47-20.23-7.43c1.55,6.12,11.91,11,16.58,11.89l1.37,6.23c-.12,3.34-.25,6.85-.39,10.47-.77,20-1.36,40.55-.35,45.21,2,9,1.35,17.68.08,29.45-1.14,10.61-3.08,23.77-4.27,30.5l1-.12c1.21-6.67,2.81-18.39,4.4-30.33s2.06-20.26-.23-29.73c-1.09-4.5-.35-26,.37-45q.14-3.45.26-6.75l4.84,21.94.35,29.07Z" style="fill:#37474f"></path></g><g id="freepik--top--inject-5"><path d="M371.2,144.18c-8.4-.08-12,1.64-17.25,4.93-3,1.87-25.45,12.62-25.45,12.62l-16.74,18.82s2.16,4.69,11.56,3.39c15.29-2.11,36.14-11.57,36.14-11.57Z" style="fill:#f28f8f"></path><path d="M357.06,128.67a8.79,8.79,0,0,1,1.05-2,22.44,22.44,0,0,0,1.71-5,2.08,2.08,0,0,1,.56-1.09,1.52,1.52,0,0,1,2.05.27,3.61,3.61,0,0,1,.76,2.13c.3,3.23-.69,6.53-.1,9.73a23,23,0,0,1,.51,4.12,6.73,6.73,0,0,1-.3,2.09c-.06.21-.87,1.62-.84,1.68l-2.77-5.51q-1-2-2-4a4.48,4.48,0,0,1-.68-1.71A2,2,0,0,1,357.06,128.67Z" style="fill:#f28f8f"></path><path d="M348.84,122.93c1-2.11,1.26-4.91,1.72-6.63a19.4,19.4,0,0,1,2.16-4.81c1-1.65,1.82-3.86,2.48-4s1.62.7,1.39,2.08c0,0,1-.91,1.8-1.88s1.5-2.22,2.52-2.32,1.28,1.54.78,2.59-.85,1.64-.85,1.64.9.58-.21,2.43a10.24,10.24,0,0,1-1.67,2,9.55,9.55,0,0,1-1.6,3.35,18.93,18.93,0,0,1-1.82,3.63c.2,1.09,1.18,2.08.92,3.88s.54,2.56,2.32,5c1.19,1.65,2.24,1.8,3.28,4s1.3,6.27-.76,8.64-3.64,4.07-5.62,6.58c-1.49,1.91-3.07,4.48-9.44,13.59-4.94,7.08-5.39,8-7.67,10.49-3.18,3.49-6.92,8.07-14,9.81s-14.73-.27-12.92-5.76c2.17-6.58,4.91-11.57,8.46-14.76a70.84,70.84,0,0,1,9.28-7c3.73-2.59,6.75-5.41,11.42-9.19s8-7.55,8.2-9c.33-2.49-.28-6.26-.57-8.19C348,126.12,347.5,126.16,348.84,122.93Z" style="fill:#ffa8a7"></path><path d="M362.46,140.58a13.26,13.26,0,0,1-2.49,3.31c-.9,1.06-1.8,2.13-2.66,3.21s-1.75,2.18-2.59,3.29-1.82,2.75-2.64,3.88c.92-1,1.95-2.65,2.84-3.72s1.77-2.15,2.66-3.22l2.63-3.24,1.32-1.63A5,5,0,0,0,362.46,140.58Z" style="fill:#f28f8f"></path><path d="M356.59,109.57a11.67,11.67,0,0,1-.77,1.73c-.3.55-.62,1.09-1,1.6l-.05.08v.13a8.54,8.54,0,0,1-.07,1,6.86,6.86,0,0,1-.22,1,6.35,6.35,0,0,1-.85,1.83l-.09.14,0,.13a5.15,5.15,0,0,1,.18.75,7,7,0,0,1,.09.8,7.3,7.3,0,0,1,0,.81c0,.27-.06.54-.1.82a4.76,4.76,0,0,0,.49-1.62,6.12,6.12,0,0,0,0-.86,5.31,5.31,0,0,0-.11-.87l-.05.27a5.65,5.65,0,0,0,1.05-2,5.91,5.91,0,0,0,.23-1.11,5.42,5.42,0,0,0,0-1.14l0,.2a11,11,0,0,0,.81-1.78A6.53,6.53,0,0,0,356.59,109.57Z" style="fill:#f28f8f"></path><path d="M360.84,109.6a6.13,6.13,0,0,1-.79.74,6,6,0,0,1-.88.57l-.06,0,0,.09a8.38,8.38,0,0,1-1.14,1.94,6,6,0,0,1-1.62,1.47l-.2.12,0,.23a7.32,7.32,0,0,1,0,1.23,10.93,10.93,0,0,1-.24,1.27,11.82,11.82,0,0,1-.39,1.24c-.14.42-.33.81-.51,1.23a8.47,8.47,0,0,0,.8-1.09,8.12,8.12,0,0,0,.6-1.22,7.48,7.48,0,0,0,.37-1.33,5,5,0,0,0,.1-1.41l-.18.34a4.92,4.92,0,0,0,1-.74,5.94,5.94,0,0,0,.81-.93,7.46,7.46,0,0,0,.61-1.06,5.92,5.92,0,0,0,.41-1.16l-.1.13a4.36,4.36,0,0,0,.83-.77A3.83,3.83,0,0,0,360.84,109.6Z" style="fill:#f28f8f"></path><path d="M354.68,123.39a5.29,5.29,0,0,0,.29,2.4,7.47,7.47,0,0,0,1.16,2.13c-.12-.39-.27-.76-.41-1.13s-.29-.74-.41-1.11A17.59,17.59,0,0,1,354.68,123.39Z" style="fill:#f28f8f"></path><path d="M360.8,131.94a10.14,10.14,0,0,1-.08,4.29,8.09,8.09,0,0,1-.8,2,18.35,18.35,0,0,1-1.25,1.81,6.14,6.14,0,0,0,1.72-1.5,5.76,5.76,0,0,0,1-2.09A5.88,5.88,0,0,0,360.8,131.94Z" style="fill:#f28f8f"></path><g id="freepik--mobile--inject-5"><path d="M370.22,119.19l-4.91-12.6a.62.62,0,0,0-.27-.35l-1.19-.7c-.3-.18-.73,0-1.12.4l-18,20.47a2.42,2.42,0,0,0-.57,2.16L349,141.18a.65.65,0,0,0,.28.34c.29.18,1.07.64,1.19.7.29.18.73.05,1.12-.4l18-20.47A2.38,2.38,0,0,0,370.22,119.19Z" style="fill:#455a64"></path><path d="M345.37,129l.5-1.39-1.44-.85a2.27,2.27,0,0,0-.31,1.79L349,141.18a.65.65,0,0,0,.28.34l1.18.7Z" style="fill:#263238"></path><path d="M350.23,141.88l-4.91-12.6a2.38,2.38,0,0,1,.57-2.16l18-20.48c.54-.61,1.16-.63,1.38,0l4.91,12.6a2.38,2.38,0,0,1-.56,2.16l-18,20.47C351.08,142.44,350.46,142.46,350.23,141.88Z" style="fill:#37474f"></path><path d="M346,129a1.74,1.74,0,0,1,.44-1.45l18-20.47a.88.88,0,0,1,.24-.2l4.89,12.55a1.74,1.74,0,0,1-.44,1.44l-18,20.48a1.06,1.06,0,0,1-.24.2Z" style="fill:#263238"></path><path d="M368.73,120.85a1.79,1.79,0,0,0,.45-1.45l-4.78-12.25-18,20.42A1.74,1.74,0,0,0,346,129l4.77,12.25Z" style="fill:#455a64"></path><path d="M359.42,128.42c-2.22,2.5-4.77,2.57-5.68.16s.16-6.39,2.38-8.89,4.77-2.56,5.68-.15S361.65,125.93,359.42,128.42Z" style="fill:#BA68C8"></path><path d="M357.61,128.05c0-.22.06-1.31.06-1.49s0-.31-.2-.25-.58.1-.69.12-.17-.06-.16-.28a7.81,7.81,0,0,1,.22-1.92,11.43,11.43,0,0,1,.62-1.85c.1-.24.2-.24.3-.25s.21,0,.32,0l.08,0,.2-.09a.56.56,0,0,0,.23-.27c.05-.11.6-1.14.82-1.57s.13-.49.1-.58-.06-.19-.09-.29a.3.3,0,0,0-.32-.2,1.71,1.71,0,0,0-1.31.74,3.72,3.72,0,0,0-.43.59,7.91,7.91,0,0,0-.73,1.56,14.71,14.71,0,0,0-1.08,4.77c0,2.09.2,1.89.33,2.13a.8.8,0,0,0,1,.27,2.13,2.13,0,0,0,.67-.63A1.54,1.54,0,0,0,357.61,128.05Z" style="fill:#fff;fill-rule:evenodd"></path></g><g id="freepik--hair--inject-5"><path d="M380.82,126.72c-.83-1.79-1.54-3.8-2.9-5.27s-3.2-2.26-4.79-3.38-4.27-2.46-5.72-4c-6.25-6.44-5.47-12.25-3.29-16.36,5-9.5,15.13-12.37,21.65-12.33,12.36.07,18.19,3.63,19.07,10.13,3.79.24,5.88,2.15,7.72,5,1.51,2.3,1.89,4.16,1.68,11.07a14.84,14.84,0,0,0,.7,4.92c.82,2.19,2.64,4.44,3.31,6.68.79,2.61,1.08,5.61-.1,8.12-2.23,4.72-5.47,5-5.49,5.09a6.57,6.57,0,0,0-.62-6,12.23,12.23,0,0,1-.64,5.22c-1.17,2.7-4.1,4.18-6.95,4.82a16.55,16.55,0,0,1-7.41,0,12.44,12.44,0,0,1-6.38-3.69c-1.67-1.87-2.68-4.29-4.54-6-.91-.85-1.88-.86-2.88-1.46A6.4,6.4,0,0,1,380.82,126.72Z" style="fill:#37474f"></path><path d="M382,100.88a7.38,7.38,0,0,0-3-5.24,9.75,9.75,0,0,0-8.49-1,11.29,11.29,0,0,0-6.12,5.41,10.72,10.72,0,0,0-1.15,5.21c.08,2.51,2.33,7,4.14,8.82s1.51,3.24.92,5.9c-.43,1.9-1.56,3.54-2.35,5.31a12.34,12.34,0,0,0-.86,8.21,8.54,8.54,0,0,0,5.43,5.94,2.8,2.8,0,0,1-.15-1.89c.33,1.36,1.76,2.12,3.07,2.59,4.32,1.56,11.76,1.89,12.83-4.09.32-1.76-.36-4.22-.54-6-.21-2.12-.45-4.25-.69-6.37-.81-6.92-1.74-13.84-2.75-20.74C382.22,102.27,382.12,101.58,382,100.88Z" style="fill:#263238"></path></g><path d="M419.58,219.63c-3.36-11.75-7.42-17.22-6.6-22.62,1.27-8.31,5-18.69,5.46-24.44,1.56-20.46-4-23.71-7.6-25.41l-8.08-1.86c-2.14-.59-24.52-1.29-24.52-1.29l-7.16.21a94.82,94.82,0,0,0-14.34,14.29c-6.69,8.42-11,21.4-1,30,0,0,.16,7.82-.05,11.43-.56,5.18-3.35,11.57-4.8,20.61C364.67,234.18,403.12,232.72,419.58,219.63Z" style="fill:#BA68C8"></path><path d="M374.8,190c9.51,6.74,22.16,4.19,27.29-5.77C401.16,197.78,383,201.17,374.8,190Z" style="opacity:0.1"></path><g id="freepik--head--inject-5"><path d="M399.37,140.1c0-2,.12-13.56.12-13.56.07.76,3.73,2.92,7.11-1s3-9.62.6-11.9c-3.74-3.53-9.15-.45-9.8,4.54-2.86,1.53-3.86-2-2-6.1-.81-.55-3.66-.65-3.41-7.84-.37-3.58-5.79-6.06-10-3.4-3.85-3.73-10.56-2.25-12.74,2.06-1.88,4.16-2.27,4.16-1.78,9.37.18,1.84-.78,4.6-.93,7-.66,10.86,2.66,15.54,6.09,17.43,2.29,1.27,3.38,1.77,7.44,1.77,0,0,0,1.91,0,3.42s-.42,2-1.83,2c-.71,1.11-11.47,10.67-1.05,12.9C391.51,160,402,147,402.76,145.3,400,144.38,399.34,143.76,399.37,140.1Z" style="fill:#ffa8a7"></path><path d="M384.08,124.84l-5.69,2.41a3,3,0,0,0,4,1.77A3.27,3.27,0,0,0,384.08,124.84Z" style="fill:#b16668"></path><path d="M383.83,126.24a3.39,3.39,0,0,0-3.15,3,3,3,0,0,0,1.7-.17,3.21,3.21,0,0,0,1.91-2.77A3.57,3.57,0,0,0,383.83,126.24Z" style="fill:#f28f8f"></path><path d="M369,110.32l4.46-1.11a2.2,2.2,0,0,0-2.7-1.72A2.42,2.42,0,0,0,369,110.32Z" style="fill:#263238"></path><path d="M388.65,110.53l-4.45-1.33a2.22,2.22,0,0,1,2.81-1.61A2.46,2.46,0,0,1,388.65,110.53Z" style="fill:#263238"></path><path d="M373.59,114a2,2,0,0,1-1.81,2.06,1.86,1.86,0,0,1-2-1.74,2,2,0,0,1,1.8-2.06A1.85,1.85,0,0,1,373.59,114Z" style="fill:#263238"></path><path d="M387,114.52a2,2,0,0,1-1.44,2.33,1.85,1.85,0,0,1-2.27-1.38,2,2,0,0,1,1.44-2.33A1.83,1.83,0,0,1,387,114.52Z" style="fill:#263238"></path><path d="M372.91,121.4l5.84,2.11,1.52-10.85C377.86,112.69,375.39,116.68,372.91,121.4Z" style="fill:#f28f8f"></path><path d="M380.09,138.56a21.59,21.59,0,0,0,11.67-3.32A14.15,14.15,0,0,0,396,130s.35,3.62-3.74,7.26c-4.73,4.22-12.23,3.75-12.23,3.75Z" style="fill:#f28f8f"></path></g><g id="freepik--Arn--inject-5"><path d="M410.84,147.16c4.06.87,7.78,1.72,10.43,3.62,3,2.12,4.31,5.18,7.17,10.29,3.15,5.67,16,28.32,16,28.32s-5.08,18.33-10.68,16.08c-4.64-1.86-20.87-28.86-20.87-28.86C406.73,165.59,409,152.62,410.84,147.16Z" style="fill:#ffa8a7"></path><path d="M427.39,194.62c-2.49-6-1.27-11.15-.18-15.14,2.4-8.85,3.73-13.95,3.73-13.95l7.87,13.89Z" style="fill:#f28f8f"></path><path d="M448.26,146.24s-.19-.51.42-1.38,1.17-1.35,1.87-2.3,1.66-2.73,1-3.62-2.73.57-4.12,2a9.07,9.07,0,0,1-4.74,3.06c-2.52.75-5.32,2.12-6,4.92Z" style="fill:#f28f8f"></path><path d="M456.25,148.23a36,36,0,0,1,3.53-4.89,17,17,0,0,0,2-4.17c.58-1.57,1.59-3.4,1.32-3.93s-1.39-.7-2.19.23c0,0,.08-1.15.26-2.27s.66-2.26.16-3-1.77,0-2.2.93-.63,1.49-.63,1.49-.9-.29-1.53,1.51a8.57,8.57,0,0,0-.43,2.27,8.31,8.31,0,0,0-1.37,3,15.94,15.94,0,0,0-1.44,3.27,9.75,9.75,0,0,0-3.22,2c-1.07,1.19-1.14,1.64-3.79,1.81-1.79.12-4.36-.22-6.43.31s-3.92,1.38-4.37,4.1-.7,4.75-1.3,7.51c-.45,2.08-1.3,4.59-3.9,14-2,7.33-2.49,8.46-3.34,12.16a20.52,20.52,0,0,0,1,13.16c2.54,5.94,5,8.68,7.84,8.31,6-.8,9.4-10.46,9.56-14.65s-.65-19.26-.83-24.52.61-9.66,1.5-10.62a30.16,30.16,0,0,1,5.86-4.22C454.59,150.62,454.82,151,456.25,148.23Z" style="fill:#ffa8a7"></path><path d="M436.65,148.93a12,12,0,0,0-.84,3.54c-.22,1.2-.43,2.41-.68,3.61s-.49,2.4-.77,3.6-.84,2.78-1.15,4c.19-1.22.7-2.81.92-4s.47-2.4.7-3.61l.71-3.6.36-1.81A4.32,4.32,0,0,1,436.65,148.93Z" style="fill:#f28f8f"></path><path d="M461,135.47a9.94,9.94,0,0,0-.74,1.5c-.2.51-.39,1-.55,1.54l0,.08-.09.07a6.05,6.05,0,0,0-.64.61,7.36,7.36,0,0,0-.55.7,5.53,5.53,0,0,0-.76,1.61l0,.14-.11,0a3.89,3.89,0,0,0-.61.31c-.2.12-.4.24-.59.38a6.63,6.63,0,0,0-1.05,1,4.2,4.2,0,0,1,.82-1.23,4.52,4.52,0,0,1,.56-.51,3.3,3.3,0,0,1,.65-.42l-.16.18a4.93,4.93,0,0,1,.77-1.83,5.18,5.18,0,0,1,.62-.78,4.48,4.48,0,0,1,.77-.65l-.11.15a9.24,9.24,0,0,1,.75-1.55A5.73,5.73,0,0,1,461,135.47Z" style="fill:#f28f8f"></path><path d="M458.54,132.61a5.11,5.11,0,0,0-.06.95,6.81,6.81,0,0,0,.11.92v.06l0,.08a7.68,7.68,0,0,0-.68,1.86,5.46,5.46,0,0,0-.08,1.93l0,.2-.16.11a6,6,0,0,0-.82.72,8.84,8.84,0,0,0-.73.87c-.21.31-.43.62-.62,1s-.36.68-.54,1a6.46,6.46,0,0,1,.29-1.15,6.36,6.36,0,0,1,.49-1.1,6.14,6.14,0,0,1,.69-1,4.62,4.62,0,0,1,.9-.86l-.14.32a4.55,4.55,0,0,1-.06-1.1,4.87,4.87,0,0,1,.17-1.08,5.83,5.83,0,0,1,.38-1,5.54,5.54,0,0,1,.55-.93l0,.14a4.06,4.06,0,0,1,.06-1A3.67,3.67,0,0,1,458.54,132.61Z" style="fill:#f28f8f"></path><path d="M452.67,144.53a4.81,4.81,0,0,1-1.79,1.16,6.86,6.86,0,0,1-2.09.41c.32-.14.66-.25,1-.36s.66-.22,1-.35A17,17,0,0,0,452.67,144.53Z" style="fill:#f28f8f"></path><path d="M442.73,146.34a8.81,8.81,0,0,0-2.86,2.46,6.7,6.7,0,0,0-.88,1.65,14.89,14.89,0,0,0-.52,1.86,5,5,0,0,1,0-2,5.12,5.12,0,0,1,4.21-4Z" style="fill:#f28f8f"></path></g></g></g></g><g id="freepik--character-1--inject-5"><g id="freepik--character--inject-5"><g id="freepik--bottom--inject-5"><path d="M140.71,366c-.23,9-.77,19.42-.56,21,.79,5.58,3.29,7.86,5.67,10,5,4.57,8.41,6.31,14.5,10.15-.66,2.27-12.7,3.15-16.25,1.75a127,127,0,0,1-15-7.33c-5-3.13-6.27-5.16-6.77-10.49-.07-.66-.79-5-.76-5.28-.14-1.24-1.42-10-2.69-19.8Z" style="fill:#c8856a"></path><path d="M67.91,386.66l0-22.73L90,367l-4.47,20.6s-2.68,28.3-3.79,32.92c-3.59,14.88-15.67,8.88-17.11,1C63.68,416.29,67.91,386.66,67.91,386.66Z" style="fill:#c8856a"></path><path d="M170.38,415.09c.32,0,.75,3.47-1,4.92-2,1.68-7.76,4.41-15.36,3.33s-11.68-3.47-14.7-6.06-7.24-6.25-10.67-7c-3.19-.74-8.37-2.61-9.38-3.61s-.83-5.41-.83-5.41Z" style="fill:#263238"></path><path d="M121.51,385.78a2.35,2.35,0,0,0-1.24,1.49c-.25,1.21-.28,2.77-.8,4.76-.73,2.76-1.25,8.44-.86,10.7s7.31,4.26,10.63,5.57a42.41,42.41,0,0,1,10.71,7c3.54,3,11,6.05,16,6.18,7.57.19,12.49-1.82,14-4.53,1.91-3.36,1-6.87-7.64-11-1.64-.79-7.38-4.29-9.34-5.55a44.91,44.91,0,0,1-5.87-4.49,33,33,0,0,1-2.62-2.67,11.94,11.94,0,0,1-2.18-2.84c-.09-.23-.16-.5-.24-.74a12.54,12.54,0,0,1-.55-2.06c-.13-.72-.21-1.78-.89-2.23s-11.51,1.58-12.28,2.78a6.45,6.45,0,0,0-.75,3.15c0,.51,0,1,0,1.54,0,.21.09.61-.22.51s-.6-.85-.71-1.11c-.23-.58-.38-1.19-.64-1.75a5,5,0,0,0-1.06-1.86c-1.43-1.24-2.84-1-3.25-1.44C121.69,387.14,121.55,386.22,121.51,385.78Z" style="fill:#37474f"></path><path d="M162.79,406.13c-11,.64-14.11,9.38-14.62,13.58a25.77,25.77,0,0,0,7.76,1.73c7.57.19,12.8-1.81,14.34-4.52C172.07,413.75,170.53,409.17,162.79,406.13Z" style="fill:#fafafa"></path><path d="M146.74,408.05a.53.53,0,0,1-.4-.88c1.54-1.86,6.52-5.83,10.49-5.35a.53.53,0,0,1-.12,1.06c-3.71-.43-8.33,3.51-9.55,5A.54.54,0,0,1,146.74,408.05Z" style="fill:#f5f5f5"></path><path d="M142.05,405.24a.48.48,0,0,1-.33-.13.53.53,0,0,1-.07-.75c1.55-1.86,6.52-5.84,10.5-5.35a.52.52,0,0,1,.46.59.51.51,0,0,1-.59.47c-3.71-.44-8.33,3.5-9.55,5A.54.54,0,0,1,142.05,405.24Z" style="fill:#f5f5f5"></path><path d="M137.72,402a.5.5,0,0,1-.34-.13.53.53,0,0,1-.07-.75c1.55-1.86,6.54-5.84,10.5-5.35a.53.53,0,1,1-.13,1.06c-3.7-.44-8.32,3.5-9.55,5A.52.52,0,0,1,137.72,402Z" style="fill:#f5f5f5"></path><path d="M133.47,398.84a.5.5,0,0,1-.33-.12.54.54,0,0,1-.08-.76c2.12-2.63,7.44-5.87,11.41-5.39a.53.53,0,1,1-.13,1.06c-3.57-.43-8.56,2.67-10.45,5A.56.56,0,0,1,133.47,398.84Z" style="fill:#f5f5f5"></path><path d="M84.19,424.85c-.36,5.32-1.23,8.85-3.14,11.95s-5.48,4-9.06,3.09-8.17-3.45-9.15-8.06-1.55-7.76-.68-12.69Z" style="fill:#263238"></path><path d="M67.91,386.66c-1.74-.17-1.6,6.82-2.53,14-1,7.66-2.13,10.7-3,17-1,7.18.14,10.4,2.6,14.78s11.3,8.74,15.74,2.56c3.63-5,3.83-10.66,3.58-17.84-.25-7.43.52-12.4,1.18-18,.68-5.79,1.35-10.85.07-11.47l-.77,5.59c-.16.4-.74,1.39-1-.12-.07-.44.08-1.47,0-1.91a1.89,1.89,0,0,0-1.33-1.74,14.22,14.22,0,0,0-6.3-1.46c-2.89-.05-5.39-.17-7,.64-1,.49-1,1.42-1.08,2.32-.14,1.08-.16,1.75-.42,1.53C67.19,392,67.91,386.66,67.91,386.66Z" style="fill:#37474f"></path><path d="M61.91,421.77a18,18,0,0,0,2.65,11c2.46,4.37,12,8.76,16.46,2.58,2.21-3.07,2.83-6.73,3.17-10.46C81.62,420,66.09,417.73,61.91,421.77Z" style="fill:#fafafa"></path><path d="M81,417a.41.41,0,0,1-.18-.05c-.06,0-6.89-2.95-13.58-1.47a.56.56,0,0,1-.65-.43.54.54,0,0,1,.42-.65c7.07-1.56,14,1.43,14.29,1.56a.55.55,0,0,1,.25.74A.54.54,0,0,1,81,417Z" style="fill:#f5f5f5"></path><path d="M67.67,410.11a.53.53,0,0,1-.46-.38.55.55,0,0,1,.35-.69c6.67-2.19,14,1.29,14.28,1.44a.53.53,0,0,1,.22.74.56.56,0,0,1-.74.23c-.06,0-7.21-3.4-13.42-1.36A.58.58,0,0,1,67.67,410.11Z" style="fill:#f5f5f5"></path><path d="M68,405.06a.55.55,0,0,1-.12-1.07c7.33-2.54,14.29,1.24,14.55,1.4a.55.55,0,0,1-.58.94c-.06,0-6.78-3.66-13.61-1.3A.5.5,0,0,1,68,405.06Z" style="fill:#f5f5f5"></path><path d="M68.38,400.09a.54.54,0,0,1-.46-.36.56.56,0,0,1,.33-.71c6.87-2.49,14.36,1.39,14.64,1.56a.55.55,0,0,1,.2.75.55.55,0,0,1-.76.2c-.06,0-7.32-3.79-13.71-1.47A.5.5,0,0,1,68.38,400.09Z" style="fill:#ebebeb"></path><path d="M76.66,211.05c-1.47,14.53-2,18.11-3,50.4-1,31.31-1,35.9-1.17,39.67-.4,8.66-5.35,12.12-5.75,32.53-.36,18.7.92,41.55.92,41.55s2.79,3.21,9.89,3.59a23.94,23.94,0,0,0,10.57-1.51s10.11-42.62,13.1-55.51c3.51-15.16,9.22-41.57,9.22-41.57s2.86,23.56,3.94,31.15c1,7.24-1.46,10.06.1,26.28,1.24,12.92,4.92,34.53,4.92,34.53A22.47,22.47,0,0,0,130,374.71c8.13-.38,10.69-3.17,10.69-3.17s4.55-48.33,4.59-66.82c.05-19.58.46-64.94-1.63-93.67Z" style="fill:#455a64"></path><path d="M110.46,280.2l4.16-32.52s10.56-3.2,17.15-10.63c-.32,5.38-9.56,12.58-14,13.81l-4.91,28.86,1.5,31.63Z" style="fill:#37474f"></path><path d="M95.79,215.39a44.36,44.36,0,0,0-3.7,8.62,84.16,84.16,0,0,0-2.34,9.09,93.69,93.69,0,0,0-1.36,9.27,61.16,61.16,0,0,0-.29,9.38c.64-3.07,1.22-6.11,1.8-9.16s1.15-6.08,1.77-9.1,1.23-6.05,1.89-9.07S95,218.41,95.79,215.39Z" style="fill:#37474f"></path><path d="M91.76,216.66a33.11,33.11,0,0,0-4,4.89A47,47,0,0,0,84.48,227a41.87,41.87,0,0,0-2.39,5.9,25.69,25.69,0,0,0-1.21,6.26l2.64-5.7c.89-1.87,1.78-3.73,2.72-5.57s1.86-3.7,2.79-5.56S90.91,218.62,91.76,216.66Z" style="fill:#37474f"></path><path d="M98.25,252.6c-1,9.73-1.86,19.48-2.74,29.21S92.66,302.32,91.22,312s-8.34,47.54-9.47,57.26c1.89-9.61,9.88-47.27,11.41-57S96.44,291.7,97,281.93,98,262.38,98.25,252.6Z" style="fill:#37474f"></path><path d="M134.67,252.17l1,25.54c.14,4.26.31,8.51.41,12.76s.25,8.51.09,12.71-1.37,44.92-1,53.46c1.21-9.47,2.47-44.82,2.95-53.39.17-8.62-.37-17.1-.94-25.62S135.79,260.63,134.67,252.17Z" style="fill:#37474f"></path></g><g id="freepik--top--inject-5"><path d="M140.8,186.36l15.2,12s4.7-3.12,3.41-10.74c-1.53-9.06-9.16-32.64-12.83-40.06S135.25,132.91,123,134.11l4.28,19.23Z" style="fill:#BA68C8"></path><path d="M140.8,186.36l15.2,12s4.7-3.12,3.41-10.74c-1.53-9.06-9.16-32.64-12.83-40.06S135.25,132.91,123,134.11l4.28,19.23Z" style="opacity:0.2"></path><path d="M141.77,160.78c-1-18.16-9.51-25.72-18.73-26.67,0,0-13.16.29-20.49,1.43a235.45,235.45,0,0,0-24.12,4.59c-3.55,1.69-6.58,11.59-7.08,24.41-.36,9.11,4.9,20.64,5,32.16s-.35,14.66-1.61,29.81c13,10.46,59.34,13.94,69.79-7.29,0,0-.72-20.41-1.07-26.51C142.82,181.88,142.1,166.49,141.77,160.78Z" style="fill:#BA68C8"></path><g style="opacity:0.4"><path d="M141.77,160.78c-1-18.16-9.51-25.72-18.73-26.67,0,0-13.16.29-20.49,1.43a235.45,235.45,0,0,0-24.12,4.59c-3.55,1.69-6.58,11.59-7.08,24.41-.36,9.11,4.9,20.64,5,32.16s-.35,14.66-1.61,29.81c13,10.46,59.34,13.94,69.79-7.29,0,0-.72-20.41-1.07-26.51C142.82,181.88,142.1,166.49,141.77,160.78Z"></path></g><g id="freepik--head--inject-5"><path d="M94.63,128.21c-1-5.05-6.13-10.23-8.5-14.6-2.29-4.21-3.66-7.49-3.5-11.5.09-2.38,1.52-5.63,3.26-6.34a11,11,0,0,1,7.8-13.93,37.32,37.32,0,0,0,4.83-1.47c1.89-.84,2.29-2.38,3.8-3.73,2.61-2.31,7.07-2.46,8.85.92,1.72-2.33,4.11-2.32,6.89-1.68a4.71,4.71,0,0,1,3.74,5.26c3.66-2.15,7.11.39,7.5,2.56.28,1.59,0,3,1,4.37,1.22,1.59,3.45,1.52,4.1.19.44,2.27-.42,4-2.89,4a5.18,5.18,0,0,1,.74,4.34,4.72,4.72,0,0,1-4.2,3.35,8.15,8.15,0,0,1-1,3.5,8.28,8.28,0,0,1-2.86,2.69c-3.7,1.86-7.83,2.53-11.84,3.46l-4.76,1.09c-.28.07-1.72.19-1.89.44Z" style="fill:#263238"></path><path d="M88.34,121.79c3.61,2,6-.31,6-.31l.11,16.73c2.94,7.09,15.19,8,19.59,5.91s3.78-4.75.81-8.7l.25-2.74a47.73,47.73,0,0,0,6-.4c4-.63,7.23-4.55,8.27-8.88a38.06,38.06,0,0,0-.23-16.44,12.17,12.17,0,0,1-.31-4.17c.3-3.71-.41-5.84-1.43-8.93-4.46-3.43-14.6-4.4-23.91,1.54,1.22,5.59-.87,10.09-4.9,12.31.22,1.52.49,5.34-2,5.32-1.8,0-2-2.26-3.85-4.2s-6.2-2.38-7.8.58C82.7,113.55,84.39,119.54,88.34,121.79Z" style="fill:#c8856a"></path><path d="M103.82,104.65,92,108.19a4.82,4.82,0,0,1,1.77,1.89l10.37-2.65Z" style="fill:#263238"></path><path d="M131.49,100.74h-.78c-2.53.08-5.79.45-7.66,1.34-2.36,1.11-3.11,2.1-4.48,2.3s-2.49-.54-5.21-1c-2.17-.32-5.64.25-8.28.9l-.82.21a1.42,1.42,0,0,0-.78,1.55,3.11,3.11,0,0,0,1,1.56,2,2,0,0,1,.34.63,29.24,29.24,0,0,0,1.48,4.54,5.88,5.88,0,0,0,1.24,1.55,5,5,0,0,0,.6.43l.35.18a4.42,4.42,0,0,0,1,.34l.17,0,.26,0,.27,0a4.76,4.76,0,0,0,.85,0l.37,0,.45,0a5.9,5.9,0,0,0,5.35-4.33c.64-1.89.11-4.34,1.68-4.56h.3c1.19.13,1.35,2.42,2.3,4a6.78,6.78,0,0,0,1.37,1.66l.31.25.16.11.17.11.15.09.16.08.13.07.09,0a4.88,4.88,0,0,0,1.46.39h.13a6.71,6.71,0,0,0,1.71-.06,4.83,4.83,0,0,0,4.39-3.95,31.39,31.39,0,0,0,.26-4.77,1.38,1.38,0,0,1,.2-.64,3.28,3.28,0,0,0,.45-1.78C132.49,101.34,131.93,100.74,131.49,100.74Zm-15.43,8.78a5.64,5.64,0,0,1-.9,2.64h0a4.82,4.82,0,0,1-3.6,2,4.06,4.06,0,0,1-3.82-1.32l-.13-.16-.12-.16-.11-.16-.09-.14-.06-.11a.33.33,0,0,1-.06-.1l-.09-.17h0c-.09-.17-.17-.33-.24-.49h0q-.06-.17-.12-.3c-.07-.18-.12-.34-.17-.49l0-.09,0-.09c-.38-1.2-.94-3.56-.4-4.18s2-1.39,4.57-1.49h.27a9.31,9.31,0,0,1,1.18,0l.46,0a10.1,10.1,0,0,1,1.17.23l.36.1.39.13.08,0,.15.06a2.33,2.33,0,0,1,.83.53C116.14,106.5,116.18,108.11,116.06,109.52Zm14.8-2.61c-.05,1-.16,3.13-1.82,4.3a4.22,4.22,0,0,1-1.85.71,4.16,4.16,0,0,1-4.1-1.33s0,0,0,0l-.09-.1-.09-.12-.05-.07-.12-.18-.14-.22-.06-.1,0-.06,0-.09,0-.07a7.34,7.34,0,0,1-.37-.88c-.44-1.33-.79-2.9-.41-3.71s2.13-1.89,3.88-2.37c.41-.11.79-.19,1.15-.25l.14,0,.14,0,.41,0H128a5.41,5.41,0,0,1,.59,0h.28l.15,0,.17,0,.29.07.05,0a2.23,2.23,0,0,1,.69.32C130.86,103.22,130.92,105.65,130.86,106.91Z" style="fill:#37474f"></path><path d="M117.5,109.28l2.12,8.65,5.92-3.24-.8-1.1c-.13-.19-.27-.37-.4-.57-.26-.36-.51-.72-.78-1.08-.71-1-1.41-1.91-2.09-2.75-.36-.44-.76-.9-1.13-1.29s-.73-.76-.9-.91a5,5,0,0,0-.61-.48C117.74,106.65,117.66,107.9,117.5,109.28Z" style="fill:#af6152"></path><path d="M114,119.46a.58.58,0,0,1,.32,0,3.17,3.17,0,0,1,.84.47,9.75,9.75,0,0,0,3.19,1.38,6,6,0,0,0,.74.12l.84.11a.41.41,0,0,1,.26.09c.5.42-1,.48-1.18.48a8,8,0,0,1-1.76-.17,6.85,6.85,0,0,1-3.13-1.55,1,1,0,0,1-.33-.43.41.41,0,0,1,.14-.49Z" style="fill:#af6152"></path><path d="M115.08,132.68c-6.33-.6-11.13-1.18-14.52-5.68a39.53,39.53,0,0,1-4-7.39,30.85,30.85,0,0,0,2.91,9.31c1.65,2.88,5.46,5.37,15.36,6Z" style="fill:#af6152"></path><path d="M112.84,107.81a1.8,1.8,0,0,1-1.65,2,1.85,1.85,0,1,1,1.65-2Z" style="fill:#263238"></path><path d="M110.19,101.2l-4.06,1.53a2.27,2.27,0,0,1,1.31-2.86A2.11,2.11,0,0,1,110.19,101.2Z" style="fill:#263238"></path><path d="M126.84,100.24l-4.36-.39a2.11,2.11,0,0,1,2.3-2A2.31,2.31,0,0,1,126.84,100.24Z" style="fill:#263238"></path><path d="M127.08,106.9a1.78,1.78,0,1,1-1.75-1.88A1.83,1.83,0,0,1,127.08,106.9Z" style="fill:#263238"></path></g><path d="M78.43,140.13c-9.49,2.46-13.18,11.3-10.82,22.52,2.79,13.24,5.06,19.72,9.18,28.06,6.19,12.52,16.73,12.2,19,11.73l1-21.12L90,159.16S84.49,143.62,78.43,140.13Z" style="fill:#BA68C8"></path><path d="M78.43,140.13c-9.49,2.46-13.18,11.3-10.82,22.52,2.79,13.24,5.06,19.72,9.18,28.06,6.19,12.52,16.73,12.2,19,11.73l1-21.12L90,159.16S84.49,143.62,78.43,140.13Z" style="opacity:0.2"></path><g id="freepik--mobile--inject-5"><path d="M79.16,116l5.07-12.7a.67.67,0,0,1,.28-.35l1.21-.69c.29-.18.73,0,1.12.41l18.06,20.84a2.39,2.39,0,0,1,.55,2.18l-5.06,12.7a.72.72,0,0,1-.28.35l-1.21.69c-.3.18-.74,0-1.13-.41L79.71,118.14A2.44,2.44,0,0,1,79.16,116Z" style="fill:#455a64"></path><path d="M104.19,126.08l-.49-1.4,1.46-.85a2.27,2.27,0,0,1,.29,1.81l-5.06,12.7a.72.72,0,0,1-.28.35l-1.21.69Z" style="fill:#263238"></path><path d="M99.17,139l5.07-12.7a2.42,2.42,0,0,0-.56-2.18L85.63,103.32c-.54-.62-1.17-.65-1.4-.07L79.16,116a2.44,2.44,0,0,0,.55,2.19L97.77,139C98.31,139.59,98.94,139.62,99.17,139Z" style="fill:#37474f"></path><path d="M84,119.81h0a1.93,1.93,0,0,0-.5-1.89l-1.7-2c-.51-.59-1.12-.7-1.36-.24h0a1.94,1.94,0,0,0,.5,1.9l1.7,1.94C83.14,120.16,83.75,120.27,84,119.81Z" style="fill:#263238"></path><path d="M81,117.43c.39.44.85.52,1,.18a1.47,1.47,0,0,0-.38-1.43c-.38-.44-.84-.52-1-.18A1.46,1.46,0,0,0,81,117.43Z" style="fill:#455a64"></path><path d="M81.1,117.32c.32.37.7.44.85.15a1.21,1.21,0,0,0-.31-1.18c-.32-.37-.71-.44-.85-.15A1.18,1.18,0,0,0,81.1,117.32Z" style="fill:#37474f"></path><path d="M82.7,119.34c.39.44.85.52,1,.18a1.48,1.48,0,0,0-.37-1.43c-.39-.45-.85-.53-1-.18A1.49,1.49,0,0,0,82.7,119.34Z" style="fill:#455a64"></path><path d="M82.76,119.23c.32.36.7.43.85.15a1.2,1.2,0,0,0-.31-1.18c-.32-.37-.7-.44-.85-.15A1.21,1.21,0,0,0,82.76,119.23Z" style="fill:#37474f"></path></g><path d="M95.73,106.24c-1.06-.2-5.4,0-7.11,1-1,.63-2.35,2.77-4.13,6.46-1.22,2.55-3.27,7.1-5,11.11l15.6-15.36,3.53,1.22S96.79,106.44,95.73,106.24Z" style="fill:#c8856a"></path><path d="M76.79,147.55s.7-14,1-17.92c.22-2.61,4.5-10.73,7.44-14.79,1.68-2.33,6.73-5.53,8.33-5.61s5.49,1.62,6.71,2.24,1.94,1.15.4,2.47a23,23,0,0,1,3.2.84c.37.13,1,2.25-1.36,2.65a5.83,5.83,0,0,1,2.39.9c.65.44,0,1.73-.51,2-.76.45-2.59.22-3.45.38a11.86,11.86,0,0,0-2.38.51,4.77,4.77,0,0,0-2.34,2.68c-.47,1.13-.69,2.34-1.09,3.49a12.37,12.37,0,0,1-2.49,4.28,7.51,7.51,0,0,0-1.21,2.78c-.16,2.4,3.23,15.62,3.23,15.62Z" style="fill:#c8856a"></path><path d="M105.27,118.36a3.94,3.94,0,0,0-1.9-1,2,2,0,0,0,.85-.71,1.63,1.63,0,0,0-.26-2.15,23.3,23.3,0,0,0-2.79-.73c.63-.63,1-1.52,0-2.12a20.81,20.81,0,0,0-7.37-2.63c-1.77.18-3.25,1.33-4.7,2.27a16.7,16.7,0,0,0-3.81,3.5,16.5,16.5,0,0,1,3.92-3.34c1.4-.84,2.94-2,4.58-2.11a17.28,17.28,0,0,1,4.86,1.53,17.28,17.28,0,0,1,2.28,1.13c.35.23.56.51.41.82a2.65,2.65,0,0,1-.76.9.22.22,0,0,0,.1.38c.82.18,1.72.4,2.53.64.13,0,.56.17.63.21a1.5,1.5,0,0,1-1.31,2.21.23.23,0,0,0,0,.44,8.06,8.06,0,0,1,1.93.62,1.8,1.8,0,0,1,.48.34c.25.38.1,1-.7,1.56-1,.59-2.92.32-4.06.47-3.26.14-4.31,3.49-4.9,6.16a12.54,12.54,0,0,1-2.57,4.86,12.7,12.7,0,0,0,2.77-4.8c.54-1.72.94-3.62,2.3-4.9,1.7-1.59,3.71-.66,6-1.25C104.69,120.39,105.79,119.34,105.27,118.36Z" style="fill:#b16668"></path><path d="M100.66,114.15c-1.92-.36-3.6-1-4.83-.92a10.62,10.62,0,0,0-4.61,1.53,20,20,0,0,0-2.84,2.9,17.8,17.8,0,0,1,2.88-3.46,9.17,9.17,0,0,1,4.81-1.56,36.12,36.12,0,0,1,5.1,1.18Z" style="fill:#b16668"></path><path d="M103,117.75c-1.95-.13-3.69-.56-4.9-.35a10.59,10.59,0,0,0-4.4,2.06,20.39,20.39,0,0,0-2.48,3.22,18,18,0,0,1,2.45-3.78,9.27,9.27,0,0,1,4.6-2.12,38,38,0,0,1,5.2.58Z" style="fill:#b16668"></path><path d="M91.39,110a.19.19,0,0,0,0-.07c0-.13-.18-.37-.26-.48a2.21,2.21,0,0,0-.69-.67.44.44,0,0,0-.16-.06s0,.07,0,.1a2.26,2.26,0,0,1,.48,1.12.42.42,0,0,0,.06.19C91,110.33,91.29,110.14,91.39,110Z" style="fill:#b16668"></path><path d="M94.53,109.5l.07,0c.11-.07.19-.37.23-.49a2.1,2.1,0,0,0,.13-1,.48.48,0,0,0,0-.17s0,.06-.06.09a2.15,2.15,0,0,1-.61,1.06.61.61,0,0,0-.12.16C94,109.4,94.35,109.51,94.53,109.5Z" style="fill:#b16668"></path><path d="M76.79,147.55c-.87,12.71,0,37.29,1.91,43s10.23,12.2,17.06,11.85,7.22-10,6.37-18.83-4.51-22-8.87-39.13C91,135.57,76.79,147.55,76.79,147.55Z" style="fill:#c8856a"></path><g id="freepik--Arm--inject-5"><path d="M78.73,193.82c.42,1,1.49,2,1.51,3.06,0,2.55,5.13,4.57,6.87,6.62,5.12,4.38,19.17,6.18,30.06,5.88,17.76-.5,33.6-6.66,38.83-11,3.15-2.63,2.87-5,2.15-6.57a13,13,0,0,0-4.23-5.09,14.69,14.69,0,0,0-11-3.65c-6,2.69-16.85,7.48-23.37,9.24-2.89.79-6.48,1.29-8.12,1-1.86-.32-3-.49-3.9-1.76a21.62,21.62,0,0,0-5.41-5.17,26.13,26.13,0,0,1-4.56-4.21c-.41-.44-1.24-.27-1.73.09a2,2,0,0,0-.66,1.67c0,3.11,2.21,5.56,3.54,8.23a3.26,3.26,0,0,1,.45,2.37,2.43,2.43,0,0,1-1.84,1.5c-2.36.54-13.82-.93-18.62-5.61A6.59,6.59,0,0,0,78.73,193.82Z" style="fill:#c8856a"></path><path d="M107.53,191.52a21.47,21.47,0,0,0-4.43-4.65c-.85-.66-1.74-1.24-2.52-2s-1.51-1.5-2.23-2.28l-.54-.59a1.18,1.18,0,0,0-.88-.42,2,2,0,0,0-1.63.76,2.74,2.74,0,0,0-.4,1.71,7.63,7.63,0,0,0,.23,1.65c.57,2.16,1.9,3.94,2.91,5.78.49.91,1.07,1.89.86,2.79a2.26,2.26,0,0,1-2.21,1.48,29.35,29.35,0,0,1-6.31-.57,35.45,35.45,0,0,1-6.15-1.69,17.34,17.34,0,0,1-5.53-3.14,17.41,17.41,0,0,0,5.42,3.42,34.88,34.88,0,0,0,6.17,1.88,27.18,27.18,0,0,0,6.45.67,2.83,2.83,0,0,0,2.74-1.91,4.81,4.81,0,0,0-.9-3.23c-1-1.88-2.36-3.61-2.9-5.63a6.49,6.49,0,0,1-.22-1.52,2.13,2.13,0,0,1,.28-1.37,1.47,1.47,0,0,1,1.17-.56.62.62,0,0,1,.53.24L98,183c.75.77,1.5,1.54,2.32,2.24a30.9,30.9,0,0,0,2.6,1.91A21.19,21.19,0,0,1,107.53,191.52Z" style="fill:#af6152"></path></g></g></g></g></svg>
